<svg width="1456" height="721" viewBox="0 0 1456 721" fill="none" xmlns="http://www.w3.org/2000/svg">
<g clip-path="url(#clip0_1898_12852)">
<rect width="1456" height="721" fill="#302EA7"/>
<path opacity="0.2" d="M306.526 475.862C550.894 360.129 524.514 -124.635 418.991 -285.414C332.559 -417.087 -8.30697 -554.65 -163.467 -526.236C-311.338 -499.209 -498.085 -307.937 -494.961 -25.1871C-491.49 257.216 -121.466 678.222 306.526 475.862Z" fill="#1F1E86"/>
<path opacity="0.4" d="M253.411 393.994C455.367 298.151 433.565 -103.301 346.357 -236.448C274.926 -345.492 -6.77839 -459.413 -135.009 -435.883C-257.215 -413.501 -411.55 -255.101 -408.968 -20.9443C-406.099 212.925 -100.298 561.577 253.411 393.994Z" fill="#1F1E86"/>
<path opacity="0.6" d="M201.532 313.026C362.061 236.854 344.731 -82.2014 275.412 -188.021C218.634 -274.684 -5.28543 -365.224 -107.212 -346.523C-204.35 -328.734 -327.027 -202.845 -324.975 -16.7483C-322.694 169.121 -79.6212 446.213 201.532 313.026Z" fill="#1F1E86"/>
<path d="M152.741 237.456C274.309 179.644 261.185 -62.5087 208.69 -142.822C165.692 -208.597 -3.88127 -277.313 -81.0699 -263.12C-154.632 -249.619 -247.535 -154.073 -245.981 -12.8319C-244.254 128.236 -60.1755 338.541 152.741 237.456Z" fill="#1F1E86"/>
</g>
<defs>
<clipPath id="clip0_1898_12852">
<rect width="1456" height="721" fill="white"/>
</clipPath>
</defs>
</svg>
